<?xml version="1.0" standalone="no"?>
<!DOCTYPE svg PUBLIC "-//W3C//DTD SVG 20010904//EN"
 "http://www.w3.org/TR/2001/REC-SVG-20010904/DTD/svg10.dtd">
<svg version="1.0" xmlns="http://www.w3.org/2000/svg"
 width="300.000000pt" height="300.000000pt" viewBox="0 0 300.000000 300.000000"
 preserveAspectRatio="xMidYMid meet">
<metadata>
Created by potrace 1.11, written by Peter Selinger 2001-2013
</metadata>
<g transform="translate(0.000000,300.000000) scale(0.100000,-0.100000)"
fill="#000000" stroke="none">
<path d="M0 1500 l0 -1500 1500 0 1500 0 0 1500 0 1500 -1500 0 -1500 0 0
-1500z m1062 687 c61 -141 85 -195 253 -577 60 -135 125 -287 146 -339 l37
-93 21 57 c20 53 137 316 389 873 l96 212 103 0 103 0 0 -700 0 -700 -80 0
-81 0 3 593 3 593 -26 -75 c-15 -42 -130 -308 -257 -591 l-230 -515 -43 -3
-44 -3 -97 218 c-54 120 -161 359 -238 532 -77 173 -149 339 -160 370 l-19 56
0 -587 -1 -588 -80 0 -80 0 0 700 0 700 113 0 112 0 57 -133z"/>
</g>
</svg>
